{"title":"BBC Proms 2011_59 Hooray for Hollywood","uid":6653329,"size":5971387530,"categoryP":"video","categoryS":"music_videos","magnet":"?xt=urn:btih:e74962ed80fd987fa9a5e6bb5e1ac034d7919032&amp;dn=BBC+Proms+2011_59+Hooray+for+Hollywood&amp;tr=udp%3A%2F%2Ftracker.openbittorrent.com%3A80&amp;tr=udp%3A%2F%2Fopen.demonii.com%3A1337&amp;tr=udp%3A%2F%2Ftracker.coppersurfer.tk%3A6969&amp;tr=udp%3A%2F%2Fexodus.desync.com%3A6969","seeders":0,"leechers":0,"uploader":"Hathor","files":4,"time":1315237265,"description":"Note: This torrent contains both a DVD ISO and an MP4 Video of the concert so I suggest you select whichever you prefer. The MP4@720p has the superior video quality.\n\nBBC Proms 2011, Number 59\nRecorded on 29 August\nBroadcast on BBC2 on 3 September\nThanks to GringoLoco &amp; THE BBC :D\n\nA celebration of the Golden Age of Hollywood film musicals featuring Annalene Beechey, Charles Castronovo, Matthew Ford, Sarah Fox, Caroline O'Connor, Clare Teal, the Maida Vale Singers, John Wilson Orchestra and John Wilson (conductor).\n\nThe appearances of John Wilson and his hand-picked, high-octane orchestra have been among the most sensational Proms events of recent years.\n\nJoined by a formidable line-up of today's vocal stars, they give what one critic has described as 'the auditory equivalent of a steam-clean' to another cache of show-stoppers.\n\n'Hooray for Hollywood' takes us from the dawn of the talkies and the birth of the movie musical through to the 1960s. An extended sequence pays special tribute to the RKO films of Fred Astaire and Ginger Rogers, who was born 100 years ago.\n\n****************************************************\n\nFormat: DVD ISO PAL 16:9\nRuntime: 1:59\n\nVideo\nID                               : 224 (0xE0)\nFormat                           : MPEG Video\nFormat version                   : Version 2\nFormat profile                   : Main@Main\nFormat settings, BVOP            : Yes\nFormat settings, Matrix          : Default\nBit rate mode                    : Variable\nBit rate                         : 3 501 Kbps\nNominal bit rate                 : 9 544 Kbps\nWidth                            : 720 pixels\nHeight                           : 576 pixels\nDisplay aspect ratio             : 16:9\nFrame rate                       : 25.000 fps\nStandard                         : PAL\nColor space                      : YUV\nChroma subsampling               : 4:2:0\nBit depth                        : 8 bits\nScan type                        : Interlaced\nScan order                       : Top Field First\nCompression mode                 : Lossy\nBits/(Pixel*Frame)               : 0.338\nAudio\nID                               : 192 (0xC0)\nFormat                           : MPEG Audio\nFormat version                   : Version 1\nFormat profile                   : Layer 2\nBit rate mode                    : Constant\nBit rate                         : 256 Kbps\nChannel(s)                       : 2 channels\nSampling rate                    : 48.0 KHz\nCompression mode                 : Lossy\n\n***********************************************\n\nFormat: MP4 720p\nRuntime: 1:59\n\nVideo\nID                               : 1\nFormat                           : AVC\nFormat/Info                      : Advanced Video Codec\nFormat profile                   : &lt;a class=&quot;__cf_email__&quot; href=&quot;/cdn-cgi/l/email-protection&quot; data-cfemail=&quot;5810313f3018146c7669&quot;&gt;[email&amp;#160;protected]&lt;/a&gt;&lt;script data-cfhash='f9e31' type=&quot;text/javascript&quot;&gt;\n/* &lt;![CDATA[ */!function(){try{var t=&quot;currentScript&quot;in document?document.currentScript:function(){for(var t=document.getElementsByTagName(&quot;script&quot;),e=t.length;e--;)if(t[e].getAttribute(&quot;data-cfhash&quot;))return t[e]}();if(t&amp;&amp;t.previousSibling){var e,r,n,i,c=t.previousSibling,a=c.getAttribute(&quot;data-cfemail&quot;);if(a){for(e=&quot;&quot;,r=parseInt(a.substr(0,2),16),n=2;a.length-n;n+=2)i=parseInt(a.substr(n,2),16)^r,e+=String.fromCharCode(i);e=document.createTextNode(e),c.parentNode.replaceChild(e,c)}t.parentNode.removeChild(t);}}catch(u){}}()/* ]]&gt; */&lt;/script&gt;\nFormat settings, CABAC           : Yes\nFormat settings, ReFrames        : 6 frames\nCodec ID                         : avc1\nCodec ID/Info                    : Advanced Video Coding\nDuration                         : 1h 58mn\nBit rate mode                    : Variable\nBit rate                         : 2 634 Kbps\nMaximum bit rate                 : 3 500 Kbps\nWidth                            : 1 280 pixels\nHeight                           : 720 pixels\nDisplay aspect ratio             : 16:9\nFrame rate mode                  : Constant\nFrame rate                       : 25.000 fps\nStandard                         : PAL\nColor space                      : YUV\nChroma subsampling               : 4:2:0\nBit depth                        : 8 bits\nScan type                        : Progressive\nBits/(Pixel*Frame)               : 0.114\nStream size                      : 2.19 GiB (96%)\n\nAudio\nID                               : 2\nFormat                           : AAC\nFormat/Info                      : Advanced Audio Codec\nFormat profile                   : HE-AAC / LC\nCodec ID                         : 40\nDuration                         : 1h 58mn\nBit rate mode                    : Variable\nBit rate                         : 96.0 Kbps\nChannel(s)                       : 2 channels\nChannel positions                : Front: L R\nSampling rate                    : 48.0 KHz / 24.0 KHz\nCompression mode                 : Lossy\nStream size                      : 80.5 MiB (3%) \n","torrent":{"xt":"urn:btih:e74962ed80fd987fa9a5e6bb5e1ac034d7919032","amp;dn":"BBC+Proms+2011_59+Hooray+for+Hollywood","amp;tr":["udp%3A%2F%2Ftracker.openbittorrent.com%3A80","udp%3A%2F%2Fopen.demonii.com%3A1337","udp%3A%2F%2Ftracker.coppersurfer.tk%3A6969","udp%3A%2F%2Fexodus.desync.com%3A6969"],"infoHash":"e74962ed80fd987fa9a5e6bb5e1ac034d7919032","infoHashBuffer":{"type":"Buffer","data":[231,73,98,237,128,253,152,127,169,165,230,187,94,26,192,52,215,145,144,50]},"announce":[],"urlList":[]}}